<svg width="15" height="15" viewBox="0 0 15 15" fill="none" xmlns="http://www.w3.org/2000/svg">
<path d="M15 13.5053V13.8575C14.9363 14.1045 14.8543 14.3413 14.6832 14.5393C14.1703 15.1334 13.2989 15.1573 12.7235 14.5855C11.8381 13.7047 10.9547 12.8208 10.0732 11.934C10.0361 11.8948 10.0181 11.8404 9.98411 11.7802C9.64076 12.1261 9.3439 12.4291 9.04195 12.7273C8.84664 12.9202 8.57712 12.9257 8.40056 12.7496C8.224 12.5735 8.2283 12.3054 8.41892 12.1085C8.51306 12.0119 8.61149 11.9199 8.69235 11.8408L7.49746 10.644L6.30374 11.8459C6.39944 11.9363 6.51233 12.0306 6.61037 12.1387C6.67107 12.2001 6.7112 12.2789 6.7252 12.3641C6.7392 12.4494 6.72637 12.5369 6.6885 12.6146C6.61741 12.7782 6.48538 12.8611 6.31077 12.8725C6.16546 12.8819 6.04828 12.8189 5.94672 12.7159C5.65142 12.4181 5.35416 12.1226 5.01432 11.7829C4.98268 11.8385 4.96471 11.8944 4.92761 11.9316C4.04221 12.8206 3.15513 13.7077 2.26635 14.5929C1.65347 15.2007 0.683966 15.1138 0.224994 14.4043C0.119528 14.2407 0.0734356 14.0387 0 13.8564V13.5041C0.0738262 13.0881 0.332413 12.793 0.623031 12.5073C1.44332 11.6999 2.25385 10.8812 3.06828 10.0668C3.105 10.03 3.13937 9.99122 3.18078 9.94739C2.87688 9.64408 2.58235 9.35251 2.29017 9.0586C2.08159 8.84843 2.06791 8.57917 2.25307 8.3964C2.43822 8.21363 2.7011 8.22811 2.91516 8.44102C3.00344 8.52868 3.08586 8.62183 3.15226 8.69227L4.39012 7.46886C4.34454 7.43688 4.30097 7.40211 4.25965 7.36476C2.93703 6.04428 1.61558 4.7225 0.295305 3.39942C0.187495 3.29101 0.0980443 3.1646 0 3.04719V0.322487C0.0667753 0.180753 0.180715 0.066732 0.322257 0H3.0175C3.12336 0.0759253 3.24171 0.138544 3.33273 0.229341C4.68191 1.57251 6.02875 2.91791 7.37325 4.26552C7.41231 4.30465 7.45567 4.34379 7.5248 4.40915C7.55892 4.35566 7.59678 4.30465 7.63808 4.25651C8.97971 2.91308 10.3228 1.57082 11.6673 0.229733C11.7583 0.138935 11.8766 0.0759253 11.9821 0H14.6774C14.8188 0.0668403 14.9327 0.180829 14.9996 0.322487V3.01744C14.9242 3.1235 14.8617 3.24248 14.7715 3.33328C13.4286 4.68245 12.0831 6.02941 10.7353 7.37415C10.6962 7.41329 10.6571 7.45634 10.6239 7.49156C11.0321 7.8978 11.4294 8.29269 11.8348 8.69815C11.9259 8.605 12.0208 8.50246 12.1231 8.40384C12.3083 8.22968 12.5704 8.2285 12.7434 8.39601C12.7845 8.43627 12.8172 8.48425 12.8398 8.5372C12.8624 8.59015 12.8743 8.64703 12.8749 8.7046C12.8755 8.76216 12.8648 8.81929 12.8434 8.87271C12.822 8.92613 12.7903 8.9748 12.7501 9.01594C12.604 9.17248 12.4485 9.32159 12.2962 9.47344C12.1438 9.6253 11.9798 9.78654 11.8169 9.94896C11.8665 10.001 11.9024 10.0398 11.9399 10.0773C12.7512 10.8886 13.5579 11.7042 14.3758 12.5085C14.668 12.7938 14.925 13.0897 15 13.5053ZM11.1837 9.32394C11.1677 9.30633 11.1552 9.29107 11.1415 9.27737C8.36632 6.50205 5.59009 3.72738 2.81282 0.953371C2.7643 0.909589 2.70191 0.884365 2.63665 0.882142C2.08979 0.876663 1.54293 0.878619 0.996068 0.879402C0.958959 0.879402 0.921851 0.886056 0.878883 0.890361C0.878883 1.45158 0.882789 2.00263 0.875758 2.55407C0.872285 2.61342 0.882051 2.67281 0.904348 2.72792C0.926645 2.78302 0.960913 2.83246 1.00466 2.87264C3.74522 5.60751 6.48329 8.34409 9.2189 11.0824C9.25484 11.1188 9.29351 11.1524 9.32515 11.1814L11.1837 9.32394ZM14.1211 0.879013C13.509 0.879013 12.9188 0.876663 12.329 0.882925C12.2759 0.882925 12.2137 0.926757 12.1727 0.96746C10.8527 2.2835 9.53413 3.6011 8.21697 4.92027C8.1869 4.95002 8.16033 4.98367 8.1451 5.00089L10.029 6.88494C10.0535 6.83617 10.0833 6.79035 10.1181 6.74835C11.3313 5.53237 12.5399 4.30974 13.7672 3.10863C14.0289 2.85268 14.1559 2.60533 14.1289 2.23745C14.0961 1.79325 14.1211 1.34357 14.1211 0.879013ZM3.82842 9.3302L5.65571 11.1591L6.82287 9.9924L4.99557 8.16706L3.82842 9.3302ZM1.973 12.4408L2.55892 13.0278L3.14718 12.4408L2.56126 11.8537L1.973 12.4408ZM11.8493 12.4365L12.4407 13.0275L13.0266 12.4404L12.4407 11.849L11.8493 12.4365ZM4.39324 11.2002C4.19559 11.0045 3.99365 10.8006 3.80732 10.6131L3.22492 11.1927C3.41593 11.3884 3.61553 11.59 3.81084 11.7872L4.39324 11.2002ZM10.6083 11.1935L11.1942 11.7833L11.7837 11.1962L11.195 10.6092L10.6083 11.1935ZM1.91909 13.694L1.30778 13.074C1.19958 13.1828 1.07849 13.2889 0.976537 13.411C0.910119 13.4947 0.876737 13.6 0.882744 13.7068C0.88875 13.8136 0.933725 13.9144 1.00911 13.9901C1.0845 14.0659 1.18504 14.1112 1.2916 14.1175C1.39817 14.1238 1.50333 14.0906 1.58707 14.0243C1.70972 13.9225 1.81441 13.7996 1.91909 13.694ZM13.0739 13.694C13.1817 13.8016 13.2832 13.9143 13.3969 14.0129C13.4765 14.0832 13.5791 14.1217 13.6852 14.1212C13.7913 14.1206 13.8935 14.0809 13.9723 14.0098C14.0531 13.9411 14.1051 13.8445 14.1182 13.7392C14.1312 13.6339 14.1042 13.5275 14.0426 13.4411C13.9387 13.3038 13.8082 13.1871 13.6969 13.0709C13.4821 13.285 13.2813 13.4842 13.0739 13.6936V13.694Z" fill="#4C5862"/>
</svg>
