<svg width="14" height="14" viewBox="0 0 14 14" fill="none" xmlns="http://www.w3.org/2000/svg">
<path fill-rule="evenodd" clip-rule="evenodd" d="M7.55682 3.0625C7.55682 2.82088 7.36094 2.625 7.11932 2.625H1.3125C0.587626 2.625 0 3.21263 0 3.9375V12.6875C0 13.4124 0.587626 14 1.3125 14H10.0625C10.7874 14 11.375 13.4124 11.375 12.6875V6.88068C11.375 6.63906 11.1791 6.44318 10.9375 6.44318C10.6959 6.44318 10.5 6.63906 10.5 6.88068V12.6875C10.5 12.9291 10.3041 13.125 10.0625 13.125H1.3125C1.07088 13.125 0.875 12.9291 0.875 12.6875V3.9375C0.875 3.69588 1.07088 3.5 1.3125 3.5H7.11932C7.36094 3.5 7.55682 3.30412 7.55682 3.0625Z" fill="#192A3E"/>
<path fill-rule="evenodd" clip-rule="evenodd" d="M14 0.4375C14 0.195875 13.8041 0 13.5625 0H9.1875C8.94588 0 8.75 0.195875 8.75 0.4375C8.75 0.679125 8.94588 0.875 9.1875 0.875H12.5063L5.37814 8.00314C5.20729 8.174 5.20729 8.451 5.37814 8.62186C5.549 8.79271 5.826 8.79271 5.99686 8.62186L13.125 1.49372V4.8125C13.125 5.05412 13.3209 5.25 13.5625 5.25C13.8041 5.25 14 5.05412 14 4.8125V0.4375Z" fill="#192A3E"/>
</svg>
