<svg width="13" height="15" viewBox="0 0 13 15" fill="none" xmlns="http://www.w3.org/2000/svg">
<path d="M6.4068 0C7.18029 0.234285 7.95366 0.468693 8.72691 0.703223C9.89729 1.056 11.0678 1.40792 12.2384 1.75898C12.5317 1.84674 12.6387 1.98886 12.6387 2.29071C12.6387 4.40638 12.6387 6.52205 12.6387 8.63772C12.6387 9.51684 12.3139 10.2854 11.8136 10.9879C11.1801 11.8781 10.3663 12.5831 9.48977 13.2191C8.57445 13.8767 7.60203 14.4507 6.58422 14.934C6.50277 14.9774 6.41195 15 6.31973 15C6.22751 15 6.1367 14.9774 6.05524 14.934C4.57827 14.2183 3.18745 13.3686 1.96892 12.2596C1.28231 11.6353 0.682214 10.9376 0.306831 10.0732C0.105881 9.6164 0.00141639 9.12292 0 8.62376C0 6.51837 0 4.41299 0 2.3076C0 1.98739 0.103377 1.85152 0.414607 1.75677C2.33624 1.17951 4.25763 0.602238 6.17878 0.0249706C6.1969 0.0182294 6.21454 0.0102546 6.23157 0.00110161L6.4068 0ZM11.7589 2.53858C11.7098 2.52169 11.6735 2.50737 11.6365 2.49635C9.90768 1.97686 8.17777 1.45847 6.44675 0.941181C6.35428 0.917292 6.25705 0.919197 6.16558 0.946689C4.76572 1.36287 3.36659 1.78236 1.96819 2.20515C1.60601 2.31531 1.24419 2.42548 0.877603 2.53564V2.66417C0.877603 4.65303 0.877603 6.64164 0.877603 8.63C0.880048 9.05146 0.978469 9.4668 1.16537 9.8444C1.53196 10.6086 2.102 11.2101 2.72666 11.7609C3.77655 12.687 4.96575 13.402 6.20921 14.0336C6.2445 14.0535 6.28448 14.0634 6.32494 14.0624C6.3654 14.0613 6.40482 14.0494 6.43906 14.0278C7.31709 13.5917 8.15953 13.0872 8.95859 12.5188C9.72585 11.968 10.437 11.3518 11.0133 10.5946C11.5093 9.94281 11.7773 9.22233 11.7674 8.3836C11.7457 6.49793 11.7604 4.6119 11.7604 2.72586L11.7589 2.53858Z" fill="#4C5862"/>
</svg>
