<svg width="11" height="14" viewBox="0 0 11 14" fill="none" xmlns="http://www.w3.org/2000/svg">
<path d="M5.50433 0.0996094C5.61612 0.121888 5.72792 0.141507 5.84034 0.166113C6.69346 0.359308 7.35973 0.869061 7.93529 1.52379C8.69003 2.38136 9.19756 3.39122 9.58116 4.47391C9.91318 5.40305 10.122 6.37498 10.2018 7.36284C10.2787 8.33014 10.2465 9.2898 9.97338 10.2258C9.44286 12.0427 8.27801 13.155 6.50054 13.555C5.41458 13.7994 4.33469 13.7462 3.28833 13.3482C1.99604 12.8567 1.11417 11.9207 0.635073 10.5786C0.332282 9.72906 0.24349 8.84555 0.265848 7.94542C0.297788 6.62232 0.56896 5.35176 1.04487 4.12875C1.48915 2.98721 2.07493 1.93645 2.97085 1.10548C3.53395 0.583426 4.16956 0.21067 4.93484 0.121222C4.95534 0.116433 4.97527 0.109297 4.99425 0.0999422L5.50433 0.0996094ZM9.47704 7.9923C9.45755 7.7499 9.4419 7.35087 9.3908 6.95717C9.22024 5.64771 8.83568 4.4084 8.20071 3.26088C7.83627 2.60182 7.40221 1.9973 6.81611 1.52678C6.39546 1.18795 5.93265 0.944542 5.3935 0.90331C4.82561 0.859417 4.32511 1.06292 3.86421 1.38945C3.19539 1.86363 2.7083 2.51104 2.31576 3.23128C1.41856 4.87825 0.971402 6.64959 1.03816 8.54961C1.0669 9.37293 1.23651 10.1613 1.6233 10.8882C2.06152 11.7112 2.70575 12.2928 3.55823 12.601C4.68347 13.0077 5.8199 13.0067 6.94387 12.601C7.79156 12.2938 8.43292 11.7145 8.87082 10.8972C9.32915 10.0413 9.46745 9.10924 9.47704 7.9923Z" fill="#CBD4DA"/>
</svg>
