<svg width="11" height="14" viewBox="0 0 11 14" fill="none" xmlns="http://www.w3.org/2000/svg">
<path d="M5.39481 0C5.50986 0.0229293 5.62491 0.0431208 5.74063 0.0684457C6.61865 0.267281 7.30437 0.791918 7.89674 1.46577C8.67352 2.34837 9.19586 3.38772 9.59066 4.50202C9.93238 5.45829 10.1473 6.45859 10.2294 7.4753C10.3086 8.47084 10.2754 9.45852 9.99434 10.4219C9.44832 12.2918 8.24946 13.4366 6.4201 13.8483C5.30243 14.0998 4.19101 14.0451 3.1141 13.6354C1.78408 13.1296 0.876465 12.1662 0.383376 10.785C0.0717437 9.9106 -0.0196401 9.0013 0.00337071 8.07488C0.0362433 6.71316 0.315332 5.4055 0.805134 4.14678C1.26239 2.97191 1.86527 1.89047 2.78735 1.03524C3.36689 0.497943 4.02106 0.114303 4.80868 0.0222436C4.82978 0.0173144 4.85029 0.00997037 4.86983 0.000342563L5.39481 0ZM9.4835 8.12314C9.46345 7.87365 9.44734 7.46298 9.39474 7.05778C9.2192 5.71008 8.82342 4.4346 8.16991 3.25357C7.79483 2.57527 7.34809 1.9531 6.74488 1.46884C6.31195 1.12011 5.83563 0.869602 5.28074 0.827166C4.69626 0.781992 4.18115 0.991436 3.7068 1.3275C3.01845 1.81552 2.51714 2.48184 2.11313 3.22311C1.18974 4.91817 0.729524 6.74122 0.798228 8.69671C0.827813 9.54407 1.00237 10.3555 1.40046 11.1036C1.85147 11.9506 2.51451 12.5492 3.39188 12.8664C4.54998 13.285 5.71959 13.2839 6.87637 12.8664C7.74881 12.5502 8.4089 11.954 8.85958 11.1128C9.3313 10.232 9.47364 9.27268 9.4835 8.12314Z" fill="#4C5862"/>
</svg>
