<svg width="13" height="17" viewBox="0 0 13 17" fill="none" xmlns="http://www.w3.org/2000/svg">
<path d="M6.55084 0C6.69054 0.0278427 6.83025 0.052361 6.97076 0.0831127C8.03694 0.324555 8.8696 0.961614 9.5889 1.77986C10.5321 2.8516 11.1664 4.11366 11.6458 5.46674C12.0607 6.62792 12.3217 7.84258 12.4214 9.07715C12.5176 10.286 12.4773 11.4853 12.136 12.6552C11.473 14.9258 10.0172 16.3158 7.79584 16.8158C6.43867 17.1212 5.08908 17.0547 3.78141 16.5573C2.16638 15.9431 1.06428 14.7733 0.465528 13.0961C0.0871173 12.0343 -0.0238487 10.9301 0.00409301 9.80522C0.0440097 8.15169 0.382903 6.56382 0.977663 5.03538C1.5329 3.60875 2.26497 2.29557 3.38464 1.25708C4.08837 0.604645 4.88271 0.138797 5.83912 0.0270101C5.86473 0.0210246 5.88964 0.0121069 5.91337 0.000415969L6.55084 0ZM11.5157 9.86381C11.4913 9.56087 11.4718 9.06219 11.4079 8.57016C11.1947 6.93367 10.7141 5.38487 9.9206 3.95076C9.46515 3.12711 8.92268 2.37162 8.19021 1.7836C7.66451 1.36014 7.08612 1.05595 6.41233 1.00442C5.70261 0.949562 5.07711 1.20389 4.50111 1.61197C3.66526 2.20456 3.05652 3.01367 2.56595 3.91378C1.44468 5.97206 0.885851 8.18577 0.969277 10.5603C1.0052 11.5892 1.21716 12.5745 1.70055 13.483C2.24821 14.5115 3.05333 15.2383 4.11871 15.6235C5.52497 16.1318 6.94521 16.1305 8.34988 15.6235C9.40927 15.2395 10.2108 14.5156 10.7581 13.4942C11.3309 12.4245 11.5037 11.2597 11.5157 9.86381Z" fill="white"/>
</svg>
