<svg width="17" height="11" viewBox="0 0 17 11" fill="none" xmlns="http://www.w3.org/2000/svg">
<g opacity="0.3" clip-path="url(#clip0_265_10957)">
<path d="M17 5.39953C16.9168 5.2606 16.8507 5.1107 16.7526 4.98529C15.5552 3.46133 14.1661 2.15611 12.4964 1.17772C11.3971 0.534192 10.2238 0.101791 8.94737 0.0148047C7.77822 -0.0645811 6.66063 0.168509 5.5867 0.634689C4.04835 1.30229 2.73493 2.3001 1.56579 3.49765C1.08017 3.99508 0.636959 4.536 0.187927 5.06889C-0.0669384 5.37166 -0.0573769 5.6208 0.185848 5.93369C1.39158 7.48678 2.79522 8.81987 4.4899 9.8122C5.82036 10.5913 7.24022 11.0625 8.79811 10.9945C9.8683 10.9464 10.877 10.6533 11.8332 10.1758C13.8443 9.17246 15.4542 7.68102 16.8316 5.91089C16.9023 5.82053 16.943 5.70652 16.9979 5.60348L17 5.39953ZM15.7327 5.48863C15.6704 5.56421 15.628 5.62206 15.5789 5.67358C15.0617 6.21197 14.5673 6.77569 14.021 7.28156C12.9674 8.257 11.7954 9.05254 10.4317 9.52337C9.61551 9.80544 8.77815 9.92494 7.91751 9.82909C6.81447 9.70621 5.81329 9.2907 4.87033 8.71684C3.64464 7.9707 2.5969 7.01047 1.64645 5.93496C1.52172 5.79435 1.40364 5.64824 1.27225 5.48989C1.59863 5.13181 1.90464 4.77711 2.22853 4.44141C3.32325 3.31312 4.5348 2.34529 5.97711 1.70935C6.69597 1.39266 7.44436 1.1849 8.23349 1.1469C9.43922 1.08905 10.5485 1.43108 11.605 1.98552C12.7858 2.6054 13.8086 3.44233 14.737 4.39834C15.0771 4.74839 15.3972 5.11999 15.7327 5.48863Z" fill="#4C5862"/>
<path d="M5.14342 5.51524C5.15673 7.40698 6.67554 8.93263 8.52405 8.91151C10.3842 8.88998 11.8731 7.36138 11.8598 5.48652C11.8461 3.59435 10.3285 2.06956 8.47915 2.09067C6.61982 2.11178 5.13012 3.64123 5.14342 5.51524ZM6.26351 5.50721C6.2624 4.90511 6.49625 4.32709 6.91385 3.89972C7.33146 3.47235 7.89879 3.23045 8.49162 3.22698C9.72064 3.21305 10.7451 4.24971 10.7418 5.50426C10.7399 6.10653 10.5035 6.68359 10.0842 7.10946C9.66487 7.53533 9.09668 7.77542 8.50368 7.77731C7.91048 7.77709 7.34157 7.53801 6.92164 7.11248C6.50172 6.68695 6.26505 6.10968 6.26351 5.50721Z" fill="#4C5862"/>
</g>
<defs>
<clipPath id="clip0_265_10957">
<rect width="17" height="11" fill="white" transform="matrix(-1 0 0 1 17 0)"/>
</clipPath>
</defs>
</svg>
