<svg width="13" height="17" viewBox="0 0 13 17" fill="none" xmlns="http://www.w3.org/2000/svg">
<path d="M5.99717 17C5.74036 16.9619 5.4807 16.9339 5.22627 16.8838C3.30331 16.505 1.90826 15.4646 0.976793 13.8852C0.0338937 12.2863 -0.192421 10.5735 0.157771 8.78963C0.21971 8.47473 0.305948 8.16382 0.392662 7.85425C0.503199 7.45952 0.803365 7.32203 1.20787 7.47504C1.75865 7.68261 2.30848 7.89284 2.85878 8.10129C2.91167 8.12125 2.96598 8.13766 3.0365 8.16161C3.00743 7.9128 2.97408 7.6835 2.9555 7.45198C2.7492 4.85741 3.75689 2.73473 5.87091 1.05735C6.3083 0.710965 6.7938 0.414253 7.27264 0.115766C7.6862 -0.142361 8.09642 0.0434739 8.15121 0.499853C8.29177 1.67207 8.59003 2.80614 9.11413 3.88211C9.13795 3.93134 9.16654 3.9788 9.18083 4.00452C9.53674 3.80627 9.87454 3.58673 10.2414 3.42352C10.5282 3.3033 10.8301 3.21717 11.14 3.16716C11.5688 3.08999 11.9023 3.41731 11.7742 3.79518C11.5359 4.51457 11.576 5.2375 11.6965 5.96354C11.8528 6.9069 12.1625 7.81034 12.5141 8.70536C13.3298 10.7828 13.1387 12.7733 11.818 14.6281C10.9971 15.7812 9.79307 16.4443 8.36371 16.7614C7.93109 16.8576 7.48561 16.9029 7.0468 16.9725C7.0063 16.9787 6.96628 16.9898 6.92626 16.9987L5.99717 17ZM1.30793 8.59049C0.649469 10.8325 1.4056 13.5987 3.28139 14.9399C3.26805 14.8915 3.26043 14.8552 3.24852 14.8201C2.96265 14.0036 2.9898 13.1862 3.24852 12.3715C3.36382 12.0113 3.79358 11.8969 4.10613 12.132C4.17864 12.1892 4.25626 12.2405 4.33816 12.2854C5.19054 12.7289 6.20014 12.4114 6.58512 11.5838C6.63014 11.4875 6.66912 11.3889 6.70185 11.2884C6.94007 10.5548 7.00296 9.80262 6.96437 9.0411C6.94865 8.72753 7.07062 8.51953 7.32362 8.44058C7.58424 8.35942 7.81246 8.45122 7.9978 8.71512C8.13454 8.90938 8.27128 9.10364 8.40135 9.30189C9.02312 10.2506 9.55437 11.2361 9.79879 12.3338C9.97031 13.1055 10.0303 13.8794 9.73875 14.6401C9.65252 14.8649 9.54389 15.0836 9.43525 15.3248C9.94935 15.0632 10.3791 14.7416 10.7193 14.3305C11.8795 12.9268 12.1591 11.3505 11.7122 9.6567C11.5745 9.13335 11.3282 8.63661 11.1524 8.11992C10.7736 7.01113 10.5016 5.87883 10.5301 4.70484C10.5301 4.60327 10.5301 4.50171 10.5301 4.38817C10.1294 4.58198 9.80784 4.84765 9.51959 5.15279C9.20179 5.48942 8.80491 5.45128 8.55953 5.06409C8.01018 4.1877 7.63903 3.24566 7.38651 2.26372C7.31171 1.97144 7.24977 1.6765 7.17639 1.35983C6.99868 1.48845 6.83763 1.60066 6.68136 1.71864C4.31244 3.50512 3.44672 6.11433 4.32197 8.83087C4.38724 9.03356 4.35913 9.21585 4.19237 9.36309C4.02561 9.51034 3.81359 9.5405 3.59633 9.45934C3.20992 9.31608 2.82591 9.16706 2.44046 9.02114L1.30793 8.59049ZM4.14806 13.3361C4.08469 13.6022 4.11995 14.0817 4.25621 14.4591C4.55257 15.2774 5.0943 15.8753 6.0634 15.9768C7.05156 16.0806 7.86248 15.7599 8.4104 14.9536C8.82301 14.3464 8.9345 13.6856 8.83921 12.9822C8.72867 12.171 8.41707 11.4228 8.02305 10.6994C8.00744 10.677 7.98957 10.6561 7.96969 10.6369C7.91775 10.8613 7.87821 11.0742 7.8177 11.2813C7.75816 11.4949 7.68481 11.7049 7.59805 11.9102C7.12732 12.9902 6.29829 13.4945 5.04474 13.4501C4.74553 13.4417 4.44823 13.3778 4.14806 13.3383V13.3361Z" fill="white"/>
</svg>
