<svg width="15" height="15" viewBox="0 0 15 15" fill="none" xmlns="http://www.w3.org/2000/svg">
<path d="M14.3599 12.0708L13.3656 11.2305C12.3779 10.396 11.3563 9.53313 10.3536 8.68081C10.0347 8.41018 9.71395 8.12936 9.40339 7.85727C9.27256 7.7429 9.14138 7.62817 9.00982 7.51307C9.02511 7.49631 9.03895 7.48138 9.05351 7.46754L10.098 6.46152C11.1011 5.49592 12.1369 4.49682 13.1607 3.51666C13.3642 3.32179 13.5743 3.12656 13.7771 2.93752C14.073 2.66216 14.3792 2.37769 14.6712 2.08812C14.9789 1.78289 15.0717 1.38733 14.9436 0.944421C14.8929 0.764566 14.7998 0.599503 14.6722 0.463105C14.5445 0.326707 14.386 0.22296 14.2099 0.160583C14.0297 0.0976371 13.837 0.0788761 13.648 0.105876C13.4591 0.132876 13.2793 0.204848 13.1239 0.315748C12.0761 1.03985 11.069 1.75849 10.1308 2.45163C9.20606 3.13458 8.53033 3.70497 7.93579 4.29759C7.64089 4.59298 7.37948 4.89603 7.42609 5.35788C7.42887 5.42722 7.42064 5.49655 7.40169 5.56331C7.20145 5.24023 7.01795 4.88838 6.95133 4.495C6.91019 4.25643 6.83373 4.08159 6.70995 3.94391C6.633 3.85868 6.55679 3.77296 6.4813 3.68676C6.24575 3.41941 6.00181 3.14259 5.73094 2.90329C4.92524 2.19048 4.09259 1.47985 3.28944 0.792898C3.04259 0.581884 2.79599 0.37099 2.54963 0.160219C2.2915 -0.0608732 2.13094 -0.0543167 1.88883 0.187172L1.58738 0.48876C1.13665 0.938957 0.670631 1.40445 0.214442 1.86448C0.163183 1.91852 0.115622 1.97596 0.0720866 2.0364C0.0524264 2.06299 0.0327657 2.08922 0.0123774 2.11471L0.000364433 2.13001V2.34273L0.0123774 2.35766C1.14393 3.76762 2.17791 5.03079 3.3739 6.21384C3.58388 6.41297 3.80603 6.59885 4.03907 6.77039L4.09259 6.81155C4.18292 6.87538 4.28712 6.91683 4.3966 6.93247C4.94963 7.02062 5.41601 7.29271 5.90825 7.58264L5.60024 7.85254C5.33519 8.08528 5.0847 8.30674 4.82548 8.52528L4.27063 8.99515C3.10558 9.98514 1.89939 11.0086 0.706309 12.0059C0.316746 12.3319 0.0873786 12.7096 0 13.1613V13.5787V13.5925C0.0680825 13.8533 0.159102 14.1527 0.375728 14.403C0.648786 14.7184 0.965898 14.9049 1.34527 14.973C1.35571 14.9758 1.36575 14.98 1.37512 14.9854L1.39842 14.996L1.40862 15H1.83495L1.84259 14.9978C1.88956 14.9832 1.93653 14.9694 1.98349 14.9559C2.09102 14.9269 2.19698 14.8923 2.30097 14.8524C2.58568 14.737 2.7932 14.5213 2.94174 14.3462C4.21929 12.8437 5.51905 11.3172 6.77621 9.84127L7.4381 9.0669C7.45703 9.04505 7.47706 9.02356 7.50036 8.99916L7.73774 9.26942C7.93143 9.48796 8.13167 9.71743 8.3239 9.94362L8.91116 10.6357C9.93057 11.8377 10.9864 13.0761 12.0138 14.3043C12.3342 14.6863 12.7085 14.914 13.1585 15.0003H13.587L13.5968 14.9963L13.6201 14.9858C13.6297 14.9805 13.6398 14.9763 13.6504 14.9734C14.1207 14.8885 14.4925 14.6332 14.7553 14.215C15.1929 13.5182 15.0295 12.6364 14.3599 12.0708ZM8.47244 7.01261L8.45788 7.02572L8.36031 6.91281C8.21468 6.7438 8.06286 6.56897 7.9205 6.39559C7.91433 6.37147 7.91573 6.34604 7.92451 6.32274C8.07604 5.95808 8.16041 5.56901 8.17354 5.1743C8.18496 5.09458 8.22354 5.02124 8.28276 4.96669L8.36613 4.88874C8.68616 4.58934 9.0171 4.27974 9.35897 3.99673C10.8062 2.79839 12.1602 1.79746 13.4985 0.937136C13.5914 0.87076 13.7016 0.832799 13.8156 0.827865C13.8952 0.828782 13.9731 0.851182 14.041 0.892699C14.1011 0.926413 14.1522 0.973974 14.1902 1.03143C14.2282 1.08889 14.2519 1.15458 14.2595 1.22306C14.2662 1.30424 14.2538 1.38587 14.2232 1.46136C14.1925 1.53684 14.1446 1.60406 14.0832 1.6576C13.9442 1.78726 13.8046 1.9162 13.6646 2.04442C13.3849 2.30193 13.0955 2.56855 12.8163 2.83627C11.8056 3.80514 10.7803 4.79258 9.78858 5.74725L8.55327 6.93721C8.53033 6.96089 8.50339 6.98383 8.47244 7.01261ZM4.37657 4.91934C4.41977 4.86494 4.44497 4.79844 4.44869 4.72906C4.45241 4.65968 4.43446 4.59086 4.39733 4.53215C4.35802 4.47156 4.31144 4.41603 4.25861 4.36679C3.36832 3.47514 2.47755 2.58409 1.58629 1.69366C1.55971 1.66707 1.53131 1.64339 1.49854 1.61607L1.49527 1.61352L1.63252 1.50972C1.64755 1.53528 1.66551 1.55899 1.68604 1.58038C2.46043 2.35693 3.28471 3.18302 4.35801 4.25388C4.40714 4.30575 4.46143 4.3525 4.52002 4.39338C4.58834 4.437 4.66957 4.45581 4.7501 4.44666C4.83063 4.43751 4.90557 4.40095 4.96237 4.34311C5.01916 4.28587 5.0549 4.21107 5.06376 4.1309C5.07261 4.05074 5.05408 3.96994 5.01116 3.90166C4.9709 3.84255 4.92453 3.78786 4.87281 3.73848C4.02087 2.88544 3.15036 2.01455 2.21068 1.07591C2.1824 1.04879 2.15275 1.02314 2.12184 0.999056L2.11492 0.993593L2.25764 0.864653L2.29988 0.898527C2.35849 0.945878 2.41893 0.99505 2.47755 1.04422L2.83689 1.3571C3.77111 2.17153 4.73737 3.01329 5.68507 3.84447C5.78308 3.93342 5.87652 4.02727 5.96504 4.12567C5.99599 4.15881 6.02657 4.19196 6.05788 4.22474C6.15591 4.32914 6.21692 4.46288 6.23155 4.60537C6.30072 5.07887 6.51662 5.51049 6.71395 5.88019C7.12931 6.65211 7.68564 7.33927 8.35412 7.90608C10.1072 9.40273 11.9891 11.009 13.8717 12.6135C14.2766 12.9584 14.3763 13.4112 14.1379 13.8246C14.0669 13.9452 13.9689 14.0477 13.8517 14.124C13.7344 14.2004 13.6011 14.2485 13.4621 14.2646C13.333 14.282 13.2016 14.2688 13.0785 14.226C12.9554 14.1832 12.8442 14.1121 12.7536 14.0183C12.4929 13.7444 12.2461 13.4476 12.0069 13.1606C11.8977 13.0305 11.7885 12.8961 11.6752 12.7654L10.6278 11.5404C9.7296 10.49 8.80084 9.40346 7.88555 8.33515C7.12427 7.44823 6.20897 6.79151 5.16553 6.38321C5.05191 6.34277 4.93529 6.31135 4.81674 6.28923C4.72682 6.26956 4.6347 6.24917 4.54733 6.22112C4.44101 6.18969 4.3431 6.1348 4.2608 6.06049L4.07876 5.87837C3.7358 5.53963 3.38119 5.18887 3.05934 4.82209C2.54162 4.2353 2.02682 3.62812 1.53022 3.04133C1.32512 2.79996 1.1199 2.5586 0.914562 2.31723C0.896358 2.2961 0.878154 2.27352 0.859586 2.24839L0.996115 2.13256C1.01614 2.15077 1.03835 2.17153 1.05983 2.19266L1.68531 2.81842C2.36068 3.49881 3.06153 4.19961 3.75291 4.88656C3.83024 4.96269 3.92386 5.02024 4.02669 5.05483C4.15521 5.09672 4.28264 5.04718 4.37657 4.91934ZM7.00594 8.45244C6.93725 8.5316 6.86905 8.60942 6.80133 8.68591C6.62912 8.88151 6.46638 9.06654 6.304 9.25776C5.01189 10.7792 3.69247 12.3345 2.38252 13.8807C2.18701 14.1116 1.93689 14.2489 1.67912 14.2671C1.56042 14.2745 1.44146 14.2576 1.32953 14.2174C1.21759 14.1772 1.11504 14.1145 1.02815 14.0333C0.935589 13.9499 0.861256 13.8482 0.809819 13.7347C0.758381 13.6212 0.730949 13.4983 0.729246 13.3736C0.725498 13.2604 0.74553 13.1476 0.788048 13.0426C0.830566 12.9376 0.894626 12.8426 0.976091 12.7639C1.23677 12.5155 1.51929 12.2802 1.79235 12.0526C1.91068 11.9542 2.03264 11.8522 2.15133 11.751L6.45109 8.078C6.4722 8.05979 6.49405 8.04158 6.51917 8.02191L6.52645 8.01608L7.00594 8.45244Z" fill="#4C5862"/>
</svg>
