<svg width="10" height="15" viewBox="0 0 10 15" fill="none" xmlns="http://www.w3.org/2000/svg">
<path d="M5.70217 0C6.02785 0.14459 6.10296 0.293583 6.06852 0.655059C5.99085 1.52517 5.92198 2.39601 5.84871 3.26649C5.78643 4.01586 5.72538 4.76511 5.66554 5.51424C5.66298 5.5469 5.66554 5.57993 5.66554 5.62433H5.82893C6.82368 5.62433 7.81818 5.62433 8.81244 5.62433C8.98096 5.62433 9.13189 5.65846 9.24473 5.79388C9.39126 5.96966 9.39383 6.16563 9.24949 6.4027C8.7984 7.14448 8.34657 7.88578 7.89401 8.62659C6.66774 10.6376 5.44085 12.6482 4.21335 14.6583C4.03347 14.9519 3.83821 15.0535 3.59899 14.9739C3.35244 14.892 3.25719 14.684 3.2854 14.3408C3.36233 13.4017 3.43194 12.4626 3.50521 11.5232C3.56944 10.686 3.63269 9.84876 3.69497 9.01155C3.69717 8.98293 3.69827 8.95394 3.70083 8.9066H3.52609C2.53158 8.9066 1.53708 8.9066 0.542576 8.9066C0.384682 8.9066 0.241807 8.87467 0.129339 8.75981C-0.0318522 8.59283 -0.0439415 8.36934 0.101864 8.14108C0.409227 7.66034 0.719887 7.18179 1.02981 6.70252C2.40312 4.57624 3.77618 2.44983 5.14899 0.323309C5.24461 0.176517 5.35818 0.0579828 5.5267 0H5.70217ZM8.05594 6.56343H7.87277C6.97595 6.56343 6.07768 6.56343 5.18196 6.56343C4.86031 6.56343 4.66469 6.35242 4.68007 6.03168C4.6852 5.92929 4.69766 5.82764 4.70645 5.72525C4.77972 4.8401 4.85299 3.95494 4.92626 3.06979C4.94604 2.83198 4.96289 2.59271 4.98194 2.35601L4.95373 2.35051L1.32692 7.97007H1.51009C2.38761 7.97007 3.26501 7.97007 4.14228 7.97007C4.50276 7.97007 4.70022 8.17558 4.67311 8.53008C4.59215 9.60092 4.50679 10.6714 4.424 11.7419C4.40275 12.0153 4.38443 12.2887 4.36465 12.5621L4.39066 12.5705L8.05594 6.56343Z" fill="#4C5862"/>
</svg>
