<svg width="14" height="14" viewBox="0 0 14 14" fill="none" xmlns="http://www.w3.org/2000/svg">
<path d="M10.1995 0H13.3163C13.6771 0.0955208 13.9039 0.324115 14 0.683594V3.80078C13.9186 3.95062 13.8638 4.12526 13.7509 4.24521C13.5099 4.50042 13.1983 4.55875 12.8726 4.4275C12.5468 4.29625 12.3689 4.04359 12.358 3.68995C12.3496 3.40958 12.358 3.12922 12.358 2.85797L10.22 4.99479C10.2247 5.00172 10.2419 5.02833 10.2602 5.05422C11.2152 6.42396 11.5242 7.93078 11.1791 9.56083C10.7149 11.7549 8.9315 13.4827 6.7285 13.8965C6.5017 13.9387 6.27198 13.9661 6.04372 14H5.27676C5.24252 13.9899 5.20762 13.9822 5.1723 13.977C4.68154 13.9392 4.19826 13.8346 3.7359 13.666C2.44299 13.1978 1.36468 12.2763 0.701847 11.0732C0.0390131 9.8702 -0.163149 8.46766 0.13302 7.12687C0.917509 3.54703 4.88086 1.64062 8.16052 3.26958C8.46438 3.42052 8.74962 3.60865 9.02098 3.76651L11.1433 1.64427H11.0213C10.7799 1.64427 10.5381 1.64828 10.297 1.64062C10.1086 1.63348 9.92838 1.56159 9.7869 1.43709C9.64542 1.3126 9.55135 1.14315 9.5206 0.957396C9.48969 0.769146 9.52514 0.576022 9.62091 0.410946C9.71667 0.24587 9.86683 0.11906 10.0458 0.0521354C10.0965 0.0331771 10.1469 0.0164062 10.1995 0ZM5.66498 4.33161C3.47148 4.31594 1.66657 6.10604 1.64758 8.31724C1.62786 10.5201 3.41889 12.3346 5.63102 12.3532C7.84972 12.3718 9.66011 10.574 9.66814 8.34531C9.67545 6.13885 7.88916 4.34729 5.66498 4.33161Z" fill="#75ACDE"/>
</svg>
