<svg width="10" height="14" viewBox="0 0 10 14" fill="none" xmlns="http://www.w3.org/2000/svg">
<path d="M4.86374 14C4.76463 13.9565 4.65785 13.9247 4.56789 13.8667C4.33311 13.7147 4.21498 13.4904 4.2095 13.2116C4.20475 12.9712 4.2095 12.7309 4.2095 12.4719C3.97472 12.4719 3.75237 12.4799 3.53076 12.47C3.19907 12.455 2.9599 12.2874 2.83593 11.9812C2.71378 11.6817 2.76498 11.3985 2.98221 11.1545C3.14238 10.9737 3.35083 10.894 3.59146 10.8947H4.19889V9.9281C2.67392 9.64059 1.48905 8.84967 0.691452 7.51331C0.0862163 6.49844 -0.116382 5.39407 0.0628114 4.22905C0.245849 3.04692 0.847708 1.96974 1.75884 1.19358C2.66997 0.417423 3.8298 -0.00611262 5.02721 6.66723e-05C7.44815 0.0135836 9.54618 1.79015 9.92761 4.14503C10.147 5.50842 9.86983 6.7655 9.06638 7.88996C8.26293 9.01443 7.16071 9.68005 5.79957 9.92701V10.8947C6.01168 10.8947 6.21903 10.8915 6.42675 10.8947C6.81256 10.9024 7.10732 11.1286 7.2035 11.4855C7.33186 11.963 6.98115 12.4488 6.48672 12.4689C6.26438 12.4781 6.04093 12.4689 5.79445 12.4689V12.7173C5.79445 12.8814 5.79701 13.0461 5.79445 13.2094C5.79348 13.3817 5.7364 13.549 5.63183 13.6861C5.52725 13.8231 5.38088 13.9224 5.21481 13.9689C5.18921 13.9766 5.16471 13.9883 5.14167 13.9978L4.86374 14ZM4.99503 8.40288C6.87327 8.40836 8.40958 6.8835 8.41872 5.00537C8.42786 3.12724 6.89228 1.58521 5.006 1.58228C4.10178 1.58178 3.23413 1.93887 2.59266 2.5755C1.9512 3.21212 1.58808 4.07653 1.58267 4.97979C1.57426 6.85938 3.10728 8.39776 4.99503 8.40288V8.40288Z" fill="#DE7588"/>
</svg>
