<svg width="66" height="65" viewBox="0 0 66 65" fill="none" xmlns="http://www.w3.org/2000/svg">
<path d="M35.4777 32.2781C35.9551 32.5529 36.1204 33.1622 35.8472 33.6406L25.5286 51.7147C25.1587 52.3626 24.2351 52.3919 23.8249 51.7687L21.5195 48.2668C21.359 48.023 21.1001 47.8615 20.8105 47.8246L16.5572 47.2832C15.8315 47.1908 15.4474 46.3761 15.8378 45.7575L26.7989 28.3896C27.0852 27.9359 27.6785 27.789 28.1434 28.0566L35.4777 32.2781Z" fill="url(#paint0_linear_0_1)"/>
<path d="M51.3708 46.7147C51.7635 47.3318 51.3825 48.1479 50.6573 48.2431L46.4022 48.8015C46.1131 48.8394 45.855 49.0016 45.6954 49.2456L43.4014 52.7525C42.9929 53.3769 42.0691 53.3502 41.6974 52.7031L31.5406 35.0197C31.2664 34.5424 31.4295 33.9333 31.9055 33.6569L39.2199 29.4086C39.6838 29.1391 40.2777 29.2837 40.5658 29.7364L51.3708 46.7147Z" fill="url(#paint1_linear_0_1)"/>
<g filter="url(#filter0_d_0_1)">
<path d="M46.2268 38.3593C45.1988 39.6505 42.6164 39.2557 41.2677 40.1439C39.9025 41.0403 39.2528 43.5651 37.6738 44.001C36.1195 44.4368 34.2608 42.6111 32.616 42.5371C31.0288 42.4631 29.0139 44.1326 27.4431 43.5487C25.8723 42.9647 25.4529 40.3824 24.2111 39.3873C22.9199 38.3593 20.3211 38.5156 19.4329 37.1668C19.2931 36.953 19.2027 36.7227 19.1533 36.4678C18.8655 35.1026 19.6385 33.2275 19.2767 31.9035C18.849 30.3491 16.6368 28.951 16.7108 27.298C16.7848 25.7108 19.0875 24.5101 19.6714 22.9393C20.2636 21.3685 19.3096 18.9506 20.3047 17.7088C21.3327 16.4177 23.915 16.8124 25.2638 15.9242C26.6207 15.0278 27.2786 12.503 28.8494 12.0672C30.4038 11.6313 32.2624 13.457 33.9072 13.531C35.4944 13.605 37.5093 11.9356 39.0801 12.5195C40.6509 13.1116 41.0703 15.6857 42.3121 16.6808C42.3779 16.7384 42.4519 16.7877 42.526 16.8289C43.8747 17.6924 46.2432 17.6184 47.0903 18.8931C47.9867 20.2583 46.8189 22.5939 47.2548 24.1647C47.6824 25.7272 49.8947 27.1253 49.8207 28.7701C49.7466 30.3573 47.4439 31.5581 46.86 33.1288C46.2761 34.6996 47.2219 37.1175 46.2268 38.3593Z" fill="url(#paint2_linear_0_1)"/>
</g>
<path d="M37.3855 17.0426C31.3162 14.7728 24.5561 17.8486 22.2863 23.9097C20.0164 29.9707 23.0922 36.7391 29.1533 39.0089C35.2226 41.2788 41.9828 38.203 44.2526 32.1419C46.5306 26.0808 43.4549 19.3207 37.3855 17.0426ZM43.2657 29.9625C42.1966 35.4891 36.8592 39.0994 31.3327 38.0303C25.8061 36.9612 22.1958 31.6238 23.2649 26.0972C24.334 20.5707 29.6714 16.9604 35.1979 18.0295C40.7163 19.0986 44.3348 24.436 43.2657 29.9625Z" fill="url(#paint3_linear_0_1)"/>
<path d="M33.8004 23.1121L35.034 25.6204C35.1162 25.7931 35.2889 25.9164 35.4781 25.9411L38.2496 26.3441C38.7348 26.4181 38.924 27.0102 38.5785 27.3556L36.5801 29.3047C36.4403 29.4445 36.3745 29.6337 36.4074 29.8311L36.8762 32.5861C36.9584 33.0713 36.4485 33.4332 36.0209 33.2111L33.5455 31.9117C33.3727 31.8213 33.1671 31.8213 32.9944 31.9117L30.519 33.2111C30.0831 33.4414 29.5815 33.0713 29.6637 32.5861L30.1325 29.8311C30.1654 29.6419 30.0996 29.4445 29.9598 29.3047L27.9614 27.3556C27.6077 27.0102 27.8051 26.4181 28.2903 26.3441L31.0618 25.9411C31.251 25.9164 31.4237 25.7931 31.5059 25.6204L32.7395 23.1121C32.9533 22.6762 33.5783 22.6762 33.8004 23.1121Z" fill="#FFEFBA"/>
<defs>
<filter id="filter0_d_0_1" x="0.708984" y="0" width="65.1133" height="64.0681" filterUnits="userSpaceOnUse" color-interpolation-filters="sRGB">
<feFlood flood-opacity="0" result="BackgroundImageFix"/>
<feColorMatrix in="SourceAlpha" type="matrix" values="0 0 0 0 0 0 0 0 0 0 0 0 0 0 0 0 0 0 127 0" result="hardAlpha"/>
<feOffset dy="4"/>
<feGaussianBlur stdDeviation="8"/>
<feComposite in2="hardAlpha" operator="out"/>
<feColorMatrix type="matrix" values="0 0 0 0 0 0 0 0 0 0 0 0 0 0 0 0 0 0 0.1 0"/>
<feBlend mode="normal" in2="BackgroundImageFix" result="effect1_dropShadow_0_1"/>
<feBlend mode="normal" in="SourceGraphic" in2="effect1_dropShadow_0_1" result="shape"/>
</filter>
<linearGradient id="paint0_linear_0_1" x1="19.0298" y1="49.3301" x2="26.9374" y2="38.0888" gradientUnits="userSpaceOnUse">
<stop stop-color="#5C7FFF"/>
<stop offset="1" stop-color="#00519E"/>
</linearGradient>
<linearGradient id="paint1_linear_0_1" x1="40.5212" y1="40.044" x2="46.909" y2="51.6327" gradientUnits="userSpaceOnUse">
<stop stop-color="#00519E"/>
<stop offset="1" stop-color="#5C7FFF"/>
</linearGradient>
<linearGradient id="paint2_linear_0_1" x1="33.2665" y1="44.2641" x2="33.2665" y2="13.068" gradientUnits="userSpaceOnUse">
<stop stop-color="#FAB83E"/>
<stop offset="1" stop-color="#FFDD79"/>
</linearGradient>
<linearGradient id="paint3_linear_0_1" x1="33.267" y1="40.3599" x2="33.267" y2="16.2821" gradientUnits="userSpaceOnUse">
<stop stop-color="#F6A228"/>
<stop offset="1" stop-color="#FBC74A"/>
</linearGradient>
</defs>
</svg>
